<svg width="171" height="31" viewBox="0 0 171 31" fill="none" xmlns="http://www.w3.org/2000/svg">
<path d="M15.1384 0.670654C16.9518 0.670654 18.4184 0.923988 19.5384 1.43066C20.6851 1.93732 21.7118 2.55066 22.6184 3.27066C22.9384 3.51066 23.2051 3.63066 23.4184 3.63066C23.9251 3.63066 24.2584 2.83066 24.4184 1.23066H25.3384C25.2851 2.27066 25.2451 3.52399 25.2184 4.99066C25.1918 6.45732 25.1784 8.40399 25.1784 10.8307H24.2584C24.0718 9.31066 23.7918 7.96399 23.4184 6.79066C23.0718 5.61732 22.3918 4.61732 21.3784 3.79065C20.7384 3.12399 19.9251 2.60399 18.9384 2.23066C17.9518 1.85732 16.9518 1.67066 15.9384 1.67066C14.4984 1.67066 13.2584 2.04399 12.2184 2.79066C11.1784 3.53732 10.3118 4.56399 9.61844 5.87066C8.9251 7.15066 8.41844 8.61732 8.09844 10.2707C7.77844 11.924 7.61844 13.6573 7.61844 15.4707C7.61844 20.2707 8.2851 23.7773 9.61844 25.9907C10.9784 28.204 12.9384 29.3107 15.4984 29.3107C16.1918 29.3107 16.7918 29.2307 17.2984 29.0707C17.8051 28.884 18.2184 28.684 18.5384 28.4707C18.9118 28.204 19.1651 27.9107 19.2984 27.5907C19.4318 27.2707 19.4984 26.8707 19.4984 26.3907V22.4307C19.4984 21.2307 19.3918 20.3373 19.1784 19.7507C18.9918 19.164 18.6051 18.764 18.0184 18.5507C17.4318 18.3373 16.5784 18.2173 15.4584 18.1907V17.3907C16.0184 17.4173 16.6718 17.444 17.4184 17.4707C18.1918 17.4707 18.9918 17.484 19.8184 17.5107C20.6718 17.5107 21.4584 17.5107 22.1784 17.5107C23.2451 17.5107 24.2318 17.4973 25.1384 17.4707C26.0451 17.444 26.7918 17.4173 27.3784 17.3907V18.1907C26.8451 18.2173 26.4451 18.3107 26.1784 18.4707C25.9118 18.6307 25.7384 18.9507 25.6584 19.4307C25.5784 19.9107 25.5384 20.644 25.5384 21.6307V29.5507H24.7384C24.7118 29.0973 24.6051 28.604 24.4184 28.0707C24.2318 27.5373 23.9518 27.2707 23.5784 27.2707C23.3918 27.2707 23.1518 27.324 22.8584 27.4307C22.5918 27.5107 22.1518 27.724 21.5384 28.0707C20.5518 28.6573 19.5251 29.1507 18.4584 29.5507C17.3918 29.924 16.2451 30.1107 15.0184 30.1107C11.9518 30.1107 9.36511 29.5373 7.25844 28.3907C5.15177 27.244 3.5651 25.604 2.49844 23.4707C1.43177 21.3107 0.898438 18.7373 0.898438 15.7507C0.898438 12.684 1.49844 10.0307 2.69844 7.79066C3.9251 5.55066 5.6051 3.80399 7.73844 2.55066C9.89844 1.29732 12.3651 0.670654 15.1384 0.670654Z" fill="white"/>
<path d="M50.9562 1.23066C50.8496 2.37732 50.7696 3.48399 50.7163 4.55066C50.6896 5.61732 50.6763 6.43066 50.6763 6.99066C50.6763 7.52399 50.6896 8.03066 50.7163 8.51066C50.7429 8.99066 50.7696 9.37732 50.7963 9.67066H49.8763C49.6363 7.77732 49.2496 6.28399 48.7163 5.19066C48.1829 4.07066 47.4896 3.28399 46.6362 2.83066C45.7829 2.37732 44.7296 2.15065 43.4762 2.15065H41.6362C40.8362 2.15065 40.2229 2.21732 39.7962 2.35066C39.3962 2.48399 39.1296 2.75066 38.9963 3.15066C38.8629 3.55066 38.7962 4.19066 38.7962 5.07065V25.7107C38.7962 26.564 38.8629 27.204 38.9963 27.6307C39.1296 28.0307 39.3962 28.2973 39.7962 28.4307C40.2229 28.564 40.8362 28.6307 41.6362 28.6307H43.7163C44.9696 28.6307 46.0496 28.3773 46.9563 27.8707C47.8896 27.3373 48.6629 26.4707 49.2762 25.2707C49.8896 24.044 50.3562 22.3907 50.6763 20.3107H51.5963C51.5163 21.1373 51.4762 22.2307 51.4762 23.5907C51.4762 24.1773 51.4896 25.0307 51.5163 26.1507C51.5696 27.244 51.6496 28.3773 51.7563 29.5507C50.3963 29.4973 48.8629 29.4707 47.1562 29.4707C45.4496 29.444 43.9296 29.4307 42.5962 29.4307C41.9562 29.4307 41.1163 29.4307 40.0763 29.4307C39.0629 29.4307 37.9562 29.444 36.7562 29.4707C35.5829 29.4707 34.3829 29.484 33.1562 29.5107C31.9562 29.5107 30.8229 29.524 29.7563 29.5507V28.7507C30.6096 28.6973 31.2496 28.5907 31.6763 28.4307C32.1029 28.2707 32.3829 27.9507 32.5163 27.4707C32.6763 26.9907 32.7563 26.2707 32.7563 25.3107V5.47065C32.7563 4.48399 32.6763 3.76399 32.5163 3.31066C32.3829 2.83066 32.1029 2.51066 31.6763 2.35066C31.2496 2.16399 30.6096 2.05732 29.7563 2.03066V1.23066C30.8496 1.25732 31.9963 1.28399 33.1963 1.31066C34.3963 1.31066 35.5829 1.32399 36.7562 1.35066C37.9562 1.35066 39.0629 1.35066 40.0763 1.35066C41.1163 1.35066 41.9562 1.35066 42.5962 1.35066C43.8229 1.35066 45.2096 1.35066 46.7562 1.35066C48.3296 1.32399 49.7296 1.28399 50.9562 1.23066ZM44.6362 14.9107C44.6362 14.9107 44.6362 15.044 44.6362 15.3107C44.6362 15.5773 44.6362 15.7107 44.6362 15.7107H37.5962C37.5962 15.7107 37.5962 15.5773 37.5962 15.3107C37.5962 15.044 37.5962 14.9107 37.5962 14.9107H44.6362ZM45.7962 9.63066C45.6896 11.1507 45.6362 12.3107 45.6362 13.1107C45.6629 13.9107 45.6763 14.644 45.6763 15.3107C45.6763 15.9773 45.6896 16.7107 45.7163 17.5107C45.7429 18.3107 45.8096 19.4707 45.9163 20.9907H44.9963C44.8629 20.0573 44.6362 19.1907 44.3162 18.3907C43.9963 17.5907 43.5163 16.9507 42.8763 16.4707C42.2363 15.964 41.3696 15.7107 40.2762 15.7107V14.9107C41.0762 14.9107 41.7429 14.7507 42.2762 14.4307C42.8362 14.084 43.2896 13.644 43.6362 13.1107C43.9829 12.5507 44.2496 11.964 44.4362 11.3507C44.6496 10.7373 44.7963 10.164 44.8763 9.63066H45.7962Z" fill="white"/>
<path d="M78.9916 1.23066C78.8849 2.53732 78.8049 3.80399 78.7516 5.03066C78.7249 6.23066 78.7116 7.16399 78.7116 7.83066C78.7116 8.41732 78.7249 8.97732 78.7516 9.51065C78.7782 10.044 78.8049 10.4973 78.8316 10.8707H77.9116C77.5116 8.68399 77.0049 6.96399 76.3916 5.71066C75.7782 4.43066 75.0182 3.52399 74.1116 2.99066C73.2316 2.43065 72.1382 2.15065 70.8316 2.15065H69.7916V24.9907C69.7916 26.0573 69.8982 26.8573 70.1116 27.3907C70.3249 27.924 70.7382 28.284 71.3516 28.4707C71.9649 28.6307 72.8582 28.724 74.0316 28.7507V29.5507C73.2316 29.524 72.1516 29.4973 70.7916 29.4707C69.4582 29.444 68.0849 29.4307 66.6716 29.4307C65.2316 29.4307 63.8716 29.444 62.5916 29.4707C61.3382 29.4973 60.3116 29.524 59.5116 29.5507V28.7507C60.6849 28.724 61.5782 28.6307 62.1916 28.4707C62.8316 28.284 63.2582 27.924 63.4716 27.3907C63.6849 26.8573 63.7916 26.0573 63.7916 24.9907V2.15065H62.7116C61.4316 2.15065 60.3382 2.43065 59.4316 2.99066C58.5516 3.52399 57.8049 4.41732 57.1916 5.67066C56.6049 6.92399 56.0982 8.65732 55.6716 10.8707H54.7516C54.8049 10.4973 54.8316 10.044 54.8316 9.51065C54.8582 8.97732 54.8716 8.41732 54.8716 7.83066C54.8716 7.16399 54.8449 6.23066 54.7916 5.03066C54.7649 3.80399 54.6982 2.53732 54.5916 1.23066C55.7916 1.25732 57.1116 1.28399 58.5516 1.31066C59.9916 1.33732 61.4316 1.35066 62.8716 1.35066C64.3116 1.35066 65.6182 1.35066 66.7916 1.35066C67.9916 1.35066 69.2982 1.35066 70.7116 1.35066C72.1516 1.35066 73.5916 1.33732 75.0316 1.31066C76.4982 1.28399 77.8182 1.25732 78.9916 1.23066Z" fill="white"/>
<path d="M102.636 1.23066C102.529 2.40399 102.449 3.55066 102.396 4.67066C102.369 5.76399 102.356 6.60399 102.356 7.19066C102.356 7.80399 102.369 8.37732 102.396 8.91066C102.423 9.41732 102.449 9.87066 102.476 10.2707H101.556C101.236 8.21732 100.783 6.60399 100.196 5.43066C99.6359 4.25732 98.9159 3.41732 98.0359 2.91066C97.1559 2.40399 96.0626 2.15065 94.7559 2.15065H93.3159C92.5159 2.15065 91.9026 2.21732 91.4759 2.35066C91.0759 2.48399 90.8093 2.75066 90.6759 3.15066C90.5426 3.55066 90.4759 4.19066 90.4759 5.07065V25.1107C90.4759 26.124 90.5826 26.884 90.7959 27.3907C91.0093 27.8973 91.4226 28.2307 92.0359 28.3907C92.6493 28.5507 93.5426 28.644 94.7159 28.6707V29.5507C93.9159 29.524 92.8759 29.4973 91.5959 29.4707C90.3159 29.444 88.9826 29.4307 87.5959 29.4307C86.4759 29.4307 85.3693 29.444 84.2759 29.4707C83.2093 29.4973 82.2626 29.524 81.4359 29.5507V28.7507C82.2893 28.6973 82.9293 28.5907 83.3559 28.4307C83.7826 28.2707 84.0626 27.9507 84.1959 27.4707C84.3559 26.9907 84.4359 26.2707 84.4359 25.3107V5.47065C84.4359 4.48399 84.3559 3.76399 84.1959 3.31066C84.0626 2.83066 83.7826 2.51066 83.3559 2.35066C82.9293 2.16399 82.2893 2.05732 81.4359 2.03066V1.23066C82.5293 1.25732 83.6759 1.28399 84.8759 1.31066C86.0759 1.31066 87.2626 1.32399 88.4359 1.35066C89.6359 1.35066 90.7426 1.35066 91.7559 1.35066C92.7959 1.35066 93.6359 1.35066 94.2759 1.35066C95.5026 1.35066 96.8893 1.35066 98.4359 1.35066C100.009 1.32399 101.409 1.28399 102.636 1.23066ZM96.6359 15.1107C96.6359 15.1107 96.6359 15.244 96.6359 15.5107C96.6359 15.7773 96.6359 15.9107 96.6359 15.9107H89.2759C89.2759 15.9107 89.2759 15.7773 89.2759 15.5107C89.2759 15.244 89.2759 15.1107 89.2759 15.1107H96.6359ZM97.6359 9.83066C97.5293 11.3507 97.4759 12.5107 97.4759 13.3107C97.5026 14.1107 97.5159 14.844 97.5159 15.5107C97.5159 16.1773 97.5293 16.9107 97.5559 17.7107C97.5826 18.5107 97.6493 19.6707 97.7559 21.1907H96.8359C96.7026 20.2573 96.4626 19.3907 96.1159 18.5907C95.7959 17.7907 95.3159 17.1507 94.6759 16.6707C94.0359 16.164 93.1693 15.9107 92.0759 15.9107V15.1107C92.8759 15.1107 93.5426 14.9373 94.0759 14.5907C94.6359 14.244 95.0893 13.804 95.4359 13.2707C95.7826 12.7107 96.0493 12.1373 96.2359 11.5507C96.4493 10.9373 96.6093 10.364 96.7159 9.83066H97.6359Z" fill="white"/>
<path d="M117.271 1.23066V2.03066C116.364 2.05732 115.671 2.16399 115.191 2.35066C114.737 2.51066 114.431 2.83066 114.271 3.31066C114.111 3.76399 114.031 4.48399 114.031 5.47065V25.7107C114.031 26.564 114.097 27.204 114.231 27.6307C114.364 28.0307 114.617 28.2973 114.991 28.4307C115.364 28.564 115.911 28.6307 116.631 28.6307H118.711C119.671 28.6307 120.551 28.4307 121.351 28.0307C122.151 27.6307 122.857 27.044 123.471 26.2707C124.084 25.4973 124.591 24.5773 124.991 23.5107C125.417 22.4173 125.724 21.2173 125.911 19.9107H126.831C126.751 20.7907 126.711 21.9507 126.711 23.3907C126.711 23.9773 126.724 24.844 126.751 25.9907C126.804 27.1373 126.884 28.324 126.991 29.5507C125.631 29.4973 124.097 29.4707 122.391 29.4707C120.684 29.444 119.164 29.4307 117.831 29.4307C117.164 29.4307 116.324 29.4307 115.311 29.4307C114.297 29.4307 113.191 29.444 111.991 29.4707C110.817 29.4707 109.617 29.484 108.391 29.5107C107.191 29.5107 106.057 29.524 104.991 29.5507V28.7507C105.844 28.6973 106.484 28.5907 106.911 28.4307C107.337 28.2707 107.617 27.9507 107.751 27.4707C107.911 26.9907 107.991 26.2707 107.991 25.3107V5.47065C107.991 4.48399 107.911 3.76399 107.751 3.31066C107.617 2.83066 107.337 2.51066 106.911 2.35066C106.484 2.16399 105.844 2.05732 104.991 2.03066V1.23066C105.657 1.25732 106.537 1.28399 107.631 1.31066C108.724 1.33732 109.897 1.35066 111.151 1.35066C112.297 1.35066 113.417 1.33732 114.511 1.31066C115.631 1.28399 116.551 1.25732 117.271 1.23066Z" fill="white"/>
<path d="M141.407 1.23066V2.03066C140.553 2.05732 139.9 2.16399 139.447 2.35066C139.02 2.51066 138.727 2.83066 138.567 3.31066C138.433 3.76399 138.367 4.48399 138.367 5.47065V25.3107C138.367 26.2707 138.433 26.9907 138.567 27.4707C138.727 27.9507 139.02 28.2707 139.447 28.4307C139.9 28.5907 140.553 28.6973 141.407 28.7507V29.5507C140.713 29.4973 139.82 29.4707 138.727 29.4707C137.66 29.444 136.58 29.4307 135.487 29.4307C134.233 29.4307 133.06 29.444 131.967 29.4707C130.873 29.4707 129.993 29.4973 129.327 29.5507V28.7507C130.18 28.6973 130.82 28.5907 131.247 28.4307C131.673 28.2707 131.953 27.9507 132.087 27.4707C132.247 26.9907 132.327 26.2707 132.327 25.3107V5.47065C132.327 4.48399 132.247 3.76399 132.087 3.31066C131.953 2.83066 131.673 2.51066 131.247 2.35066C130.82 2.16399 130.18 2.05732 129.327 2.03066V1.23066C129.993 1.25732 130.873 1.28399 131.967 1.31066C133.06 1.33732 134.233 1.35066 135.487 1.35066C136.58 1.35066 137.66 1.33732 138.727 1.31066C139.82 1.28399 140.713 1.25732 141.407 1.23066Z" fill="white"/>
<path d="M154.45 1.19065V2.03066C153.224 2.03066 152.45 2.15066 152.13 2.39066C151.81 2.63066 151.837 3.03066 152.21 3.59065L167.93 26.7107C168.464 27.4573 168.89 27.964 169.21 28.2307C169.53 28.4973 169.97 28.6573 170.53 28.7107V29.5507C169.997 29.524 169.25 29.4973 168.29 29.4707C167.33 29.4173 166.33 29.3907 165.29 29.3907C164.09 29.3907 162.877 29.4173 161.65 29.4707C160.45 29.4973 159.557 29.524 158.97 29.5507V28.7107C160.197 28.7107 160.984 28.6307 161.33 28.4707C161.704 28.284 161.704 27.9107 161.33 27.3507L145.53 4.03066C145.024 3.25732 144.61 2.73732 144.29 2.47065C143.97 2.20399 143.53 2.05732 142.97 2.03066V1.19065C143.504 1.21732 144.277 1.25732 145.29 1.31066C146.33 1.33732 147.37 1.35066 148.41 1.35066C149.584 1.35066 150.717 1.33732 151.81 1.31066C152.904 1.25732 153.784 1.21732 154.45 1.19065ZM155.05 15.2707C155.05 15.2707 155.077 15.364 155.13 15.5507C155.184 15.7107 155.237 15.884 155.29 16.0707C155.344 16.2307 155.37 16.3107 155.37 16.3107L151.25 22.0307C150.21 23.4707 149.624 24.684 149.49 25.6707C149.357 26.6307 149.597 27.364 150.21 27.8707C150.824 28.3773 151.717 28.6707 152.89 28.7507V29.5507C152.517 29.524 152.037 29.5107 151.45 29.5107C150.89 29.484 150.304 29.4707 149.69 29.4707C149.104 29.444 148.53 29.4307 147.97 29.4307C147.437 29.4307 147.01 29.4307 146.69 29.4307C145.944 29.4307 145.25 29.444 144.61 29.4707C143.997 29.4707 143.477 29.4973 143.05 29.5507V28.7507C143.957 28.4573 144.877 27.924 145.81 27.1507C146.744 26.3507 147.69 25.3107 148.65 24.0307L155.05 15.2707ZM168.85 1.23066V2.03066C167.97 2.27066 167.104 2.76399 166.25 3.51066C165.397 4.25732 164.597 5.13732 163.85 6.15066L157.37 14.9107C157.37 14.9107 157.317 14.7507 157.21 14.4307C157.13 14.084 157.09 13.9107 157.09 13.9107L161.29 8.19066C162.277 6.88399 162.864 5.79066 163.05 4.91065C163.264 4.00399 163.117 3.31066 162.61 2.83066C162.104 2.35065 161.304 2.08399 160.21 2.03066V1.23066C160.717 1.25732 161.264 1.28399 161.85 1.31066C162.464 1.31066 163.064 1.32399 163.65 1.35066C164.237 1.35066 164.744 1.35066 165.17 1.35066C165.944 1.35066 166.637 1.33732 167.25 1.31066C167.89 1.28399 168.424 1.25732 168.85 1.23066Z" fill="white"/>
</svg>
