<svg width="30" height="30" viewBox="0 0 30 30" fill="none" xmlns="http://www.w3.org/2000/svg">
<path d="M28 30L17.1946 19.1946C16.3612 19.8982 15.394 20.4492 14.2929 20.8475C13.1918 21.2456 12.0201 21.4446 10.7779 21.4446C7.7657 21.4446 5.21625 20.4006 3.12958 18.3125C1.04319 16.2247 0 13.6947 0 10.7225C0 7.75028 1.04403 5.22014 3.13208 3.13208C5.21986 1.04403 7.75458 0 10.7363 0C13.7176 0 16.2476 1.04403 18.3263 3.13208C20.4051 5.22014 21.4446 7.75167 21.4446 10.7267C21.4446 11.9275 21.2501 13.0789 20.8612 14.1808C20.4724 15.2825 19.9075 16.2964 19.1667 17.2225L30 28L28 30ZM10.75 18.6667C12.9492 18.6667 14.8183 17.8913 16.3575 16.3404C17.8969 14.7896 18.6667 12.9169 18.6667 10.7225C18.6667 8.52805 17.8969 6.65528 16.3575 5.10417C14.8183 3.55333 12.9492 2.77792 10.75 2.77792C8.53556 2.77792 6.65319 3.55333 5.10292 5.10417C3.55292 6.65528 2.77792 8.52805 2.77792 10.7225C2.77792 12.9169 3.55292 14.7896 5.10292 16.3404C6.65319 17.8913 8.53556 18.6667 10.75 18.6667Z" fill="white"/>
</svg>
