<svg width="45" height="32" viewBox="0 0 45 32" fill="none" xmlns="http://www.w3.org/2000/svg">
<path fill-rule="evenodd" clip-rule="evenodd" d="M42.5972 2.41367C43.2947 3.11561 43.7956 3.98843 44.0497 4.94476C44.9896 8.47455 44.9896 15.8355 44.9896 15.8355C44.9896 15.8355 44.9896 23.1965 44.0497 26.7262C43.7956 27.6826 43.2947 28.5554 42.5972 29.2573C41.8998 29.9593 41.0302 30.4657 40.0755 30.726C36.5611 31.671 22.5134 31.671 22.5134 31.671C22.5134 31.671 8.46581 31.671 4.95135 30.726C3.99666 30.4657 3.12707 29.9593 2.42961 29.2573C1.73215 28.5554 1.23129 27.6826 0.977145 26.7262C0.0372316 23.1965 0.0372314 15.8355 0.0372314 15.8355C0.0372314 15.8355 0.0372316 8.47455 0.977145 4.94476C1.23129 3.98843 1.73215 3.11561 2.42961 2.41367C3.12707 1.71173 3.99666 1.20529 4.95135 0.945022C8.46581 1.04308e-07 22.5134 0 22.5134 0C22.5134 0 36.5611 1.04308e-07 40.0755 0.945022C41.0302 1.20529 41.8998 1.71173 42.5972 2.41367ZM29.665 15.8356L17.9161 9.15153V22.5198L29.665 15.8356Z" fill="white"/>
</svg>
